# xmcd CD database file
#
# Track frame offsets:
#	150
#	12488
#	23792
#	37454
#	49386
#	60776
#	68181
#	78296
#	87611
#	96413
#	106355
#	125732
#	138036
#	150834
#	162734
#	175710
#	184948
#	200268
#	213967
#	224888
#	239041
#	275464
#	299092
#
# Disc length: 4322 seconds
#
# Revision: 2
# Processed by: cddbd v1.5.2PL0 Copyright (c) Steve Scherf et al.
# Submitted via: CDex 1.51
#
DISCID=6410e017
DTITLE=Serge Gainsbourg - De Gainbourg à Gainsbarre
DYEAR=2004
DGENRE=Chanson Française
TTITLE0=Le poinconneur des lilas
TTITLE1=L'eau à la bouche
TTITLE2=La chanson de Prévert
TTITLE3=Intoxicated man
TTITLE4=La javanaise
TTITLE5=Elaeudanla teiteia
TTITLE6=Couleur café
TTITLE7=Ces petits rien
TTITLE8=Dr Jekyll et Mr Hyde
TTITLE9=Comic strip
TTITLE10=Bonnie and Clyde
TTITLE11=Manon
TTITLE12=Requiem pour un con
TTITLE13=L'anamour
TTITLE14=Sous le soleil exactement
TTITLE15=Ballade de Melody Nelson
TTITLE16=Je suis venu te dire
TTITLE17=L'homme à la tête de chou
TTITLE18=Marilou sous la neige
TTITLE19=Aux armes et caetera
TTITLE20=Love on the beat
TTITLE21=Lemon incest
TTITLE22=Mon légionnaire
EXTD=YEAR: 2004
EXTT0=
EXTT1=
EXTT2=
EXTT3=
EXTT4=
EXTT5=
EXTT6=
EXTT7=
EXTT8=
EXTT9=
EXTT10=
EXTT11=
EXTT12=
EXTT13=
EXTT14=
EXTT15=
EXTT16=
EXTT17=
EXTT18=
EXTT19=
EXTT20=
EXTT21=
EXTT22=
PLAYORDER=
